HQ WEBRip

Format                                   : AVI
Format/Info                              : Audio Video Interleave
File size                                : 577 MiB
Duration                                 : 43mn 57s
Overall bit rate                         : 1 836 Kbps
Writing application                      : Lavf52.84.0

Video
Format                                   : MPEG-4 Visual
Format profile                           : Advanced Simple@L5
Format settings, BVOP                    : 2
Format settings, QPel                    : No
Format settings, GMC                     : No warppoints
Format settings, Matrix                  : Default (H.263)
Muxing mode                              : Packed bitstream
Codec ID                                 : XVID
Codec ID/Hint                            : XviD
Duration                                 : 43mn 57s
Bit rate                                 : 1 697 Kbps
Width                                    : 720 pixels
Height                                   : 400 pixels
Display aspect ratio                     : 16:9
Frame rate                               : 25.000 fps
Color space                              : YUV
Chroma subsampling                       : 4:2:0
Bit depth                                : 8 bits
Scan type                                : Progressive
Compression mode                         : Lossy
Bits/(Pixel*Frame)                       : 0.236
Stream size                              : 534 MiB (92%)
Writing library                          : XviD 1.1.2 (UTC 2006-11-01)

Audio
Format                                   : AC-3
Format/Info                              : Audio Coding 3
Mode extension                           : CM (complete main)
Format settings, Endianness              : Big
Codec ID                                 : 2000
Duration                                 : 43mn 57s
Bit rate mode                            : Constant
Bit rate                                 : 128 Kbps
Channel(s)                               : 2 channels
Channel positions                        : Front: L R
Sampling rate                            : 48.0 KHz
Bit depth                                : 16 bits
Compression mode                         : Lossy
Stream size                              : 40.2 MiB (7%)
Alignment                                : Aligned on interleaves
Interleave, duration                     : 32 ms (0.80 video frame)
Interleave, preload duration             : 512 ms

